<?xml version="1.0" encoding="UTF-8"?>
<svg id="Layer_2" data-name="Layer 2" xmlns="http://www.w3.org/2000/svg" viewBox="0 0 393.9 670.7">
  <defs>
    <style>
      .cls-1 {
        fill: #fff;
      }
    </style>
  </defs>
  <g id="Layer_1-2" data-name="Layer 1">
    <g>
      <g>
        <path d="M168.19,666.7c-24.91,0-45.41-11.74-54.84-31.42-6.63-13.83-6.78-26.97-.44-39.06,11.25-21.47,41.69-35.49,67.8-40.22C233.32,367.2,292.14,182.45,355.57,6.81l7.71,2-.25,1.54.22-.26.56,9.86c.21,3.68-.82,7.4-1.73,10.69-.04.16-.09.31-.13.47l2.17-.62-1.11,5.21,7.27,2.53-3.26,4.35c.06.29.28.82.42,1.19.41,1.03.92,2.31.95,3.84.06,3.36-2.74,10.93-7.35,22.98-1.69,4.42-3.29,8.59-3.93,10.71-11.95,39.37-25.08,79.13-37.77,117.58-10.67,32.31-21.7,65.71-31.97,98.72-14.76,47.43-28.93,95.97-42.63,142.91-8.98,30.76-18.26,62.57-27.63,93.78-.25.85-.29,1.9-.3,2.9l-.02,2.74-2.56.98c-.53.2-1.09.31-1.65.31-.27,0-.53-.02-.78-.06-.34,1-.7,2.05-1.01,2.98-1.95,5.77-3.3,9.69-4.27,11.56-.14.26-.27.53-.4.8-.13.26-.27.55-.43.86,3.39.12,6.8.41,10.15.87,10.04,1.38,12.51,3.31,13.25,5.97.52,1.87-.15,3.77-1.79,5.09l-1.06.85-1.33.03,7.98.73L379.99,83.03l7.78,1.77-1.07,6.8.12-.12v9.7c0,4.48-1.13,8.95-2.21,13.27-.29,1.14-.56,2.25-.82,3.34l2.4-.9-1.21,5.89c4.96,2.61,3.72,8.08,3.12,10.58.74.56,1.42,1.4,1.68,2.68.55,2.71-1.37,9.63-9.75,35.25-1.88,5.74-3.5,10.69-4.06,12.74-18.79,68.38-39.41,137.43-59.35,204.21-8.71,29.18-17.72,59.35-26.46,89.07-5.31,18.06-10.56,36.47-15.63,54.28-4.21,14.76-8.55,30-12.92,45.02,15.71,2.27,32.08,2.88,47.93,3.48,7.9.29,16.06.6,24.02,1.11l.48.03c6.14.38,12.36,1.05,14.98,4.55l5.13,6.85-95.43-5.19c-.87,2.48-2.08,7.03-2.73,9.49-.69,2.61-1.24,4.68-1.66,5.84-5.88,16.48-15.73,31-28.48,41.97-13.14,11.32-29.13,18.62-46.23,21.12-3.8.56-7.65.84-11.45.84ZM183.32,586.44c-2.98,7.78-4.97,16.47-6.89,24.89-1.84,8.07-3.75,16.42-6.54,24.03-.21.58-.45,1.19-.74,1.8,28.63-1.48,53.68-24.02,59.94-53.2-.46-.02-.92-.05-1.39-.07-5.87-.29-11.95-.59-17.87-.59-10.54,0-19.02,1-26.51,3.14ZM171.27,589.03c-12.68,4.43-30.3,13.6-32.08,21.93-1.18,5.52.08,10.62,3.76,15.17,3.85,4.76,10.06,8.39,16.75,10.07l11.57-47.16Z"/>
        <path class="cls-1" d="M359.33,8.17l-2.52,15.5,3.01-3.48c.29,5.09-2.48,10.86-2.97,15.53-.11,1.04.03,1.37.3,1.37.41,0,1.1-.75,1.67-.91l-2.99,14c.46.09.81.13,1.08.13,1.28,0,.8-.89,1.37-2.11,1.24-2.63,2.19-6.1,2.55-9.01l2.96,1.03c-2.07,2.76.56,5.17.6,7.47.08,4.36-9.16,26.03-11.11,32.47-21.97,72.4-47.22,143.95-69.73,216.27-24.45,78.55-46.62,157.92-70.27,236.73-.39,1.31-.46,2.68-.47,4.03-.08.03-.15.04-.22.04-.91,0-.86-2.56-1.83-2.56-.24,0-.54.15-.92.52-.72.69-5.14,15.38-6.85,18.67-1.07,2.05-1.89,4.47-4.13,4.47-.31,0-.66-.05-1.03-.15-1.31-1.15,8.04-29.24,8.75-33.75.16-1.02.99-3.25-.51-3.25-.07,0-.15,0-.23.02l-10.02,31.99-2.98-3.99-3.01,12.99c4.07-.59,8.27-.87,12.48-.87,4.37,0,8.76.31,13.01.89.93.13,12.38,1.67,9.51,3.98-9.54.23-20.02.1-29.48,1.02-1.06.1-10.16,1.67-8.52,2.97.24.1.47.14.7.14,1.2,0,2.3-1.13,2.8-1.13h27.5c1.02,3.4-3.71,1.56-4,3.99l21.98,2.02L383.82,84.19l-2.98,18.99,1.98-1.99c0,7.06-3.31,14.79-3.95,21.55-.1,1.03.02,1.36.27,1.36.36,0,1-.66,1.68-.92l-4.01,19.49c.56.69.92.97,1.18.97.47,0,.59-.91.94-1.85,1.68-4.57,3.08-10.74,3.91-15.6,3.86,1.74.52,7,.95,9.35.13.7,1.93.58,2.08,1.3.69,3.4-11.85,39.23-13.74,46.14-26.99,98.19-57.05,195.46-85.79,293.21-10.03,34.12-19.52,68.39-29.49,102.53-.17,1.26-.08,1.46.3,1.46.18,0,.42-.04.72-.04.14,0,.29,0,.46.04,24.61,3.88,50.2,3.45,74.99,5.03,3.26.21,10.7.55,12.51,2.98l-89.37-4.86c-1.57.53-4.73,14.89-5.88,18.12-11.32,31.74-37.69,55.54-71.52,60.48-3.6.53-7.24.8-10.87.8-21.03,0-41.59-9.03-51.23-29.15-20.81-43.42,32.72-68.56,66.93-74.03C235.61,373.67,293.86,189.47,359.33,8.17M163.33,638.18l13.49-54.99c-11.67,2.84-38.84,14.28-41.54,26.94-3.96,18.53,15.79,31.08,32.41,31.08.55,0,1.09-.01,1.63-.04,32.93-1.68,59.83-29,64.51-60.98-7.94-.35-15.99-.88-24-.88-9.99,0-19.92.83-29.51,3.87-6.55,15.91-8.36,34.95-14.18,50.82-.64,1.76-1.26,3.04-2.81,4.19M366.68,0l-6.57,7.61-8.31-2.15c-63.2,174.99-121.83,359.03-174.29,547.1-12.19,2.48-24.88,6.88-35.54,12.37-15.41,7.95-26.69,18.13-32.62,29.45-6.85,13.08-6.72,27.83.38,42.64,10.11,21.09,31.96,33.69,58.45,33.69,3.99,0,8.04-.3,12.03-.88,17.85-2.61,34.54-10.23,48.26-22.05,13.28-11.43,23.52-26.53,29.64-43.66.45-1.26.96-3.16,1.75-6.15.42-1.6,1.11-4.17,1.75-6.36l83.78,4.56,17.09.93-10.25-13.71c-3.64-4.87-10.56-5.69-17.94-6.14l-.47-.03c-8.02-.51-16.21-.82-24.13-1.11-14.21-.53-28.83-1.08-42.94-2.83,3.94-13.59,7.85-27.29,11.64-40.61,5.07-17.79,10.31-36.18,15.61-54.21,8.73-29.71,17.74-59.87,26.45-89.05,19.95-66.8,40.57-135.88,59.37-204.3.54-1.95,2.22-7.1,4.01-12.55,9.7-29.65,10.58-33.77,9.87-37.29-.17-.82-.52-1.92-1.26-3.03.21-1.17.35-2.5.24-3.91-.21-2.86-1.37-5.35-3.27-7.21l2.16-10.49-2.1.79c.74-3.26,1.35-6.72,1.35-10.21v-10.02s.9-5.74.9-5.74l-.9-.2v-3.43s-2.78,2.8-2.78,2.8l-11.88-2.71-144.31,478.75c-2.48-3.81-7.86-5.32-15.42-6.35-1.57-.22-3.15-.4-4.73-.54.79-2.11,1.73-4.85,2.89-8.31.05-.16.11-.32.16-.48.3-.08.61-.18.9-.29l5.12-1.95.03-5.48c0-.91.05-1.5.13-1.78,9.37-31.22,18.66-63.04,27.64-93.81,13.7-46.93,27.86-95.45,42.61-142.84,10.26-32.97,21.29-66.36,31.95-98.65,12.7-38.47,25.84-78.25,37.8-117.67.6-1.98,2.18-6.1,3.84-10.45,5.77-15.08,7.68-20.73,7.61-24.48-.03-1.72-.46-3.18-.87-4.31l5.23-6.98-9.11-3.17,1.76-8.27-1.98.57c.31-1.82.47-3.71.36-5.65l-.58-10.25v-.03s0,0,0,0l-.54-9.45h0Z"/>
      </g>
      <g>
        <path d="M27.78,539.75c-10.1,0-17.87-6.72-21.29-18.45-3.3-11.3-2.74-29.2-1.64-46.86,2.22-35.68,10.23-73.03,25.2-117.53l.8-2.39,2.5-.31c.27-.03.52-.05.74-.05,1.57,0,2.98.68,3.86,1.87,1.5,2.02.83,4.27.47,5.47-.04.14-.08.27-.11.39-.3,2-.75,3.99-1.23,5.95l1.04-.8-3.5,25.26,2.05-.54-.88,5.86,6.71,2.27-2.12,4.13c-.54,1.05-.61,1.63-.57,2.18.95,10.6-1.34,20.42-3.54,29.92-1.79,7.71-3.49,15-3.54,22.59-.03,4.45-.12,8.92-.22,13.66-.23,11.22-.46,22.81.16,33.58,3.81-4.91,9.5-14.06,13.81-22,8.23-15.19,16.68-33.65,22.06-48.18,3.26-8.82,5.4-20.14,7.67-32.13,3.17-16.81,6.46-34.2,13.32-45.84,3.61-6.14,9.8-9.8,16.55-9.8,5.3,0,10.22,2.26,13.51,6.2,3.59,4.3,4.91,10.25,3.72,16.75-2.08,11.39-7.53,23.77-12.81,35.75-4.9,11.11-9.52,21.61-11.51,31.05-1.94,9.2-3.83,34.62-3.68,49.18,35.89-65.25,59.66-138.77,80.74-203.97l3.02-9.35,2.21,4.47c.13-.38.27-.76.4-1.15,2.2-6.34,4.47-12.89,7.48-18.34,4.76-8.64,8.04-8.64,9.12-8.64,1.31,0,2.54.53,3.46,1.49l1.17,1.22,8.74-27.76,3.06,2.05,26.79-79.98,15.34-19.21-4.11,17.35c-1.09,4.6-2.45,9.57-4.04,14.77-23.15,75.75-48.76,152.58-74.07,222.2-11.63,31.99-29.69,77.74-49.75,114.07l-.36.65c-9.31,16.87-19.46,32.8-30.59,35.09-1.93.4-3.79.6-5.53.6h0c-5.21,0-9.59-1.74-13.02-5.18-5.5-5.52-7.47-14.7-8.17-23.13l-14.16,21.86-.15.18c-7.02,8.49-16.4,13.55-25.1,13.55Z"/>
        <path class="cls-1" d="M248.82,144.18c-1.15,4.86-2.51,9.74-3.97,14.52-22.25,72.79-48.01,150.48-74,222-13.33,36.68-30.7,79.46-49.5,113.5-5.25,9.5-17.15,31.47-28.25,33.75-1.7.35-3.28.52-4.73.52-17.29,0-17.62-23.37-17.55-37.28l-21.02,32.46c-6.15,7.43-14.45,12.1-22.02,12.1s-14.24-4.57-17.45-15.57c-3.44-11.78-2.28-32.84-1.49-45.49,2.48-39.82,12.35-78.9,25-116.5.09-.01.18-.02.26-.02,1.51,0,.43,2.04.28,3.04-.84,5.54-2.82,10.91-3.53,16.5l1.98-1.53-2.98,21.52,1.98-.52-2.98,19.99c.46.08.81.11,1.08.11,1.48,0,.61-1.07,1.03-2.44,1.31-4.29,2.41-9.2,2.89-13.67l2.99,1.01c-.71,1.39-1.13,2.76-.99,4.36,1.63,18.2-6.97,34.38-7.1,52.13-.11,15.74-1,33.24.04,49.04.12,1.76.26,4.16,1.56,5.47,4.37-.12,17.2-22.8,19.66-27.34,7.84-14.47,16.6-33.3,22.3-48.7,8.07-21.8,9.49-58.33,20.68-77.32,3.15-5.34,8.22-7.83,13.1-7.83,7.95,0,15.42,6.6,13.29,18.24-3.84,21.07-19.99,46.24-24.3,66.69-2.37,11.23-4.91,48.01-3.25,58.77.12.77.58,2.23,1.42,2.23.18,0,.38-.07.59-.22,38.29-66.7,62.41-140.51,86.01-213.51l1.98,3.99c3.5-8.61,6.41-19.63,10.84-27.67.47-.86,3.81-6.57,5.61-6.56.21,0,.4.08.56.25-3.69,17.31-12.53,35.08-16.55,51.94-.23.96-1.22,3.06.3,3.06.08,0,.16,0,.25-.02,5.31-13.42,8.66-30.69,15.14-43.36.68-1.33,1.23-3.23,2.86-3.63l2,4,11.02-35,2.98,1.99,28.23-84.27,3.77-4.72M264.83,111.32l-22.26,27.87-3.77,4.72-.88,1.11-.45,1.34-24.9,74.34-3.15-2.11-3.21,10.19-5.51,17.5c-.78-.22-1.6-.34-2.43-.34h-.03c-1.86,0-6.73.05-12.59,10.71-1.91,3.47-3.51,7.28-4.98,11.19l-2.39-4.82-6.05,18.71c-20.36,62.98-41.33,127.86-72.48,188.34.65-12.36,1.9-25.61,3.15-31.5,1.91-9.03,6.45-19.34,11.26-30.26,5.37-12.19,10.92-24.79,13.09-36.64,1.4-7.69-.23-14.8-4.59-20.03-4.05-4.86-10.09-7.64-16.58-7.64-8.18,0-15.66,4.4-20,11.77-7.21,12.24-10.56,29.98-13.8,47.12-2.23,11.82-4.34,22.98-7.49,31.48-5.32,14.37-13.68,32.63-21.83,47.67-1.99,3.67-4.35,7.72-6.67,11.44-.06-6.95.08-14.06.23-21.03.09-4.54.19-9.24.22-13.71.05-7.14,1.7-14.22,3.44-21.71,2.26-9.74,4.6-19.8,3.65-30.94.03-.06.06-.14.12-.25l4.23-8.26-7.93-2.68,1.28-8.57-2.11.56,1.33-9.61,2.68-19.37-.55.43c-.09-1.47-.53-3.1-1.71-4.69-1.65-2.21-4.22-3.48-7.07-3.48-.4,0-.82.03-1.23.08l-5,.61-1.61,4.77C11.17,400.48,3.1,438.15.86,474.19c-1.12,18.03-1.68,36.35,1.79,48.23,3.96,13.55,13.12,21.33,25.13,21.33,9.87,0,20.41-5.61,28.18-15l.3-.36.25-.39,8.31-12.83c1.4,5.77,3.76,10.98,7.7,14.94,4.14,4.16,9.62,6.36,15.85,6.36,2.01,0,4.15-.23,6.34-.68,13.35-2.74,24.18-20.58,33.29-37.08l.35-.64c20.19-36.55,38.34-82.52,50.01-114.64,25.33-69.69,50.96-146.59,74.13-222.39,1.61-5.28,2.99-10.33,4.1-15.01l8.22-34.7h0Z"/>
      </g>
      <g>
        <path d="M252.33,229.28c-5.09,0-10.03-2.57-13.21-6.89-3.19-4.32-4.15-9.58-2.65-14.44.42-1.35,1.21-2.31,1.79-3,.09-.11.19-.22.28-.33.22-.7.43-1.4.63-2.1,1.59-5.42,3.58-12.16,12.58-14.01,1.15-.24,2.33-.35,3.52-.35,5.03,0,9.99,2.08,13.6,5.69,3.26,3.27,5.06,7.48,5.06,11.85,0,9.75-11.18,23.59-21.6,23.59h0Z"/>
        <path class="cls-1" d="M255.27,192.14c7.39,0,14.66,5.87,14.66,13.54,0,7.46-9.44,19.6-17.6,19.6h0c-8.04,0-14.43-8.43-12.05-16.15.35-1.12,1.65-2.04,1.97-3.02,1.94-5.96,2.58-12.11,10.3-13.69.9-.18,1.81-.27,2.71-.27M255.27,184.14c-1.46,0-2.91.15-4.32.44-11.37,2.33-14.03,11.39-15.62,16.8-.13.44-.26.87-.38,1.28-.71.87-1.72,2.21-2.31,4.1-1.85,6-.63,12.73,3.26,18,3.93,5.33,10.08,8.51,16.43,8.51,8.34,0,14.82-6.15,17.95-9.81,4.79-5.62,7.65-12.26,7.65-17.78,0-5.44-2.2-10.66-6.23-14.68-4.36-4.36-10.35-6.87-16.43-6.87h0Z"/>
      </g>
    </g>
  </g>
</svg>

